<?xml version="1.0" standalone="no"?>
<!DOCTYPE svg PUBLIC "-//W3C//DTD SVG 20010904//EN"
 "http://www.w3.org/TR/2001/REC-SVG-20010904/DTD/svg10.dtd">
<svg version="1.0" xmlns="http://www.w3.org/2000/svg"
 width="700.000000pt" height="700.000000pt" viewBox="0 0 700.000000 700.000000"
 preserveAspectRatio="xMidYMid meet">
<metadata>
Created by potrace 1.11, written by Peter Selinger 2001-2013
</metadata>
<g transform="translate(0.000000,700.000000) scale(0.100000,-0.100000)"
fill="#000000" stroke="none">
<path d="M1179 6125 c-1 0 -2 -391 -3 -868 0 -569 2 -871 9 -876 11 -8 391 -9
398 -1 2 3 44 73 92 155 75 129 166 283 438 745 27 47 64 110 82 140 18 30 62
107 100 170 37 63 76 129 85 145 42 72 179 303 198 335 12 19 22 40 22 45 0 7
-243 10 -710 10 -390 0 -710 0 -711 0z"/>
<path d="M3958 6112 c-11 -12 -136 -223 -186 -312 -13 -25 -28 -49 -32 -55 -4
-5 -17 -26 -28 -45 -10 -19 -49 -86 -86 -147 -36 -62 -96 -164 -132 -225 -37
-62 -74 -126 -84 -143 -9 -16 -70 -120 -135 -230 -160 -271 -273 -463 -298
-505 -11 -19 -27 -47 -36 -62 -9 -14 -34 -57 -55 -95 -22 -37 -65 -111 -96
-163 -48 -81 -531 -901 -586 -997 -11 -18 -70 -119 -133 -225 -126 -213 -334
-566 -361 -613 -60 -103 -111 -192 -119 -205 -6 -8 -52 -87 -104 -175 -82
-140 -358 -608 -415 -705 -12 -19 -40 -68 -64 -109 -50 -87 -64 -110 -101
-172 -15 -25 -27 -48 -27 -50 0 -2 1180 -4 2623 -4 2070 0 2623 2 2627 12 3 7
5 401 5 875 l0 863 -1125 1 c-619 1 -1128 2 -1133 3 -4 0 4 19 18 41 14 22 25
43 25 47 0 3 6 14 14 22 7 9 28 43 46 76 18 33 72 128 120 210 48 83 113 196
146 253 32 57 67 117 77 135 10 18 54 93 97 167 157 271 407 706 432 750 28
50 193 336 207 360 5 8 53 92 107 185 54 94 179 310 277 480 99 171 188 326
199 345 11 19 29 51 40 70 112 192 198 342 198 348 0 4 -430 7 -956 7 -768 0
-958 -2 -966 -13z"/>
</g>
</svg>
